<svg width="128" height="24" viewBox="0 0 128 24" fill="none" xmlns="http://www.w3.org/2000/svg">
<g clip-path="url(#clip0_4476_192)">
<path d="M12.268 24C10.7923 24 9.35143 23.552 8.13585 22.7153C6.92027 21.8787 5.98728 20.6927 5.46027 19.3144L0.284771 5.7766C-0.781071 2.99058 1.27705 2.23212e-09 4.26045 2.23212e-09C5.22887 -2.96724e-05 6.17418 0.295821 6.9698 0.847934C7.76543 1.40005 8.37337 2.18207 8.71222 3.08927L14.7532 19.2653L20.4455 4.54209C20.5338 4.31318 20.5651 4.06619 20.5367 3.82248C20.5082 3.57876 20.4208 3.34563 20.2821 3.14324C20.1434 2.94085 19.9574 2.77528 19.7404 2.66084C19.5233 2.54639 19.2817 2.48651 19.0363 2.48637C18.5654 2.48641 18.1065 2.63525 17.7252 2.91162C17.3438 3.188 17.0596 3.57778 16.913 4.02532L14.188 12.2291L12.6329 8.98191L14.688 2.82789C14.9579 2.0054 15.4807 1.28915 16.1817 0.781334C16.8827 0.273516 17.7263 6.76353e-05 18.5919 2.23212e-09V2.23212e-09C21.6142 2.23212e-09 23.6938 3.03424 22.6047 5.85256L16.7862 20.903C16.4335 21.8148 15.8132 22.5986 15.0068 23.1513C14.2004 23.7041 13.2457 23.9999 12.268 24ZM12.9385 21.5136L6.29943 3.74121C6.162 3.37251 5.91518 3.05461 5.59202 2.83012C5.26886 2.60563 4.8848 2.48527 4.49132 2.48517C4.17848 2.48558 3.87042 2.56203 3.59368 2.70793C3.31695 2.85383 3.07982 3.06482 2.90273 3.32272C2.72564 3.58061 2.61389 3.87769 2.57711 4.18836C2.54033 4.49904 2.57962 4.814 2.69159 5.10612L7.5447 17.8005C7.96229 18.8926 8.70149 19.8323 9.66458 20.4953C10.6277 21.1583 11.7693 21.5134 12.9385 21.5136Z" fill="#0E0F0F"/>
<path d="M39.7606 6.52285C39.8988 6.1479 39.958 5.83215 39.958 5.57561C39.958 4.49023 39.1291 4.13501 38.32 4.13501C37.5701 4.13501 37.0965 4.5889 36.8005 5.55588L33.7614 15.2257H33.7219L30.8013 5.55588C30.5053 4.5889 30.0316 4.13501 29.1633 4.13501C28.3542 4.13501 27.5254 4.49023 27.5254 5.57561C27.5254 5.83215 27.5846 6.1479 27.7227 6.52285L31.709 17.7319C32.0445 18.6594 32.676 18.8568 33.6825 18.8568C34.6889 18.8568 35.3204 18.6594 35.6559 17.7319L39.7606 6.52285Z" fill="#0E0F0F"/>
<path d="M49.2653 13.9824C50.2323 13.9824 50.5283 13.7258 50.5283 12.7391C50.5283 10.371 48.6338 8.02266 45.3184 8.02266C41.9044 8.02266 39.8718 10.2724 39.8718 13.6272C39.8718 16.1334 41.3913 18.8568 45.4171 18.8568C47.1537 18.8568 49.9362 18.0476 49.9362 16.311C49.9362 15.7782 49.4429 15.1862 48.7522 15.1862C47.5879 15.1862 47.5879 16.607 45.4171 16.607C43.7397 16.607 42.753 15.5019 42.753 13.9824H49.2653ZM42.753 12.3247C43.0687 10.9236 43.937 10.0355 45.3776 10.0355C46.6604 10.0355 47.6471 11.0025 47.8049 12.3247H42.753Z" fill="#0E0F0F"/>
<path d="M52.5472 17.4162C52.5472 18.1858 52.8629 18.8568 53.9878 18.8568C55.1126 18.8568 55.4284 18.1858 55.4284 17.4162V14.0613C55.4284 11.6735 56.0599 10.8644 57.2242 10.8644H57.7373C58.4477 10.8644 59.1581 10.4894 59.1581 9.42378C59.1581 8.61468 58.4872 8.02266 57.5794 8.02266C56.1783 8.02266 55.527 9.26591 55.1916 10.4697H55.1521V9.36458C55.1521 8.49628 54.5798 8.02266 53.8496 8.02266C53.1195 8.02266 52.5472 8.49628 52.5472 9.36458V17.4162Z" fill="#0E0F0F"/>
<path d="M59.9717 11.2393C59.9717 13.1733 61.2742 13.864 62.9516 14.2784L64.6487 14.6928C65.6749 14.9494 66.3064 15.0678 66.3064 15.7979C66.3064 16.39 65.6552 16.8439 64.629 16.8439C62.4977 16.8439 62.3793 15.0678 61.136 15.0678C60.3269 15.0678 59.9717 15.6401 59.9717 16.2716C59.9717 17.6924 62.1425 18.8568 64.7474 18.8568C66.9182 18.8568 69.1876 17.7714 69.1876 15.423C69.1876 13.4101 67.2339 12.7194 65.596 12.3445L64.3922 12.0682C63.5041 11.8708 62.8529 11.713 62.8529 11.042C62.8529 10.4302 63.5041 10.154 64.5106 10.154C66.3261 10.154 66.3656 11.4761 67.4905 11.4761C68.2404 11.4761 68.6942 10.8841 68.6942 10.2132C68.6942 8.89096 66.484 8.02266 64.2935 8.02266C62.3004 8.02266 59.9717 8.89096 59.9717 11.2393Z" fill="#0E0F0F"/>
<path d="M80.7935 9.46325C80.7935 8.69362 80.4777 8.02266 79.3529 8.02266C78.228 8.02266 77.9123 8.69362 77.9123 9.46325V14.2192C77.9123 15.6598 76.7282 16.4886 75.7218 16.4886C74.4785 16.4886 73.9062 15.6598 73.9062 14.4955V9.46325C73.9062 8.69362 73.5905 8.02266 72.4656 8.02266C71.3408 8.02266 71.025 8.69362 71.025 9.46325V15.0678C71.025 17.9884 72.9195 18.8568 74.6561 18.8568C76.2941 18.8568 77.34 18.1069 78.1491 17.0412H78.1886V17.4162C78.1886 18.2845 78.5833 18.8568 79.491 18.8568C80.3988 18.8568 80.7935 18.2845 80.7935 17.4162V9.46325Z" fill="#0E0F0F"/>
<path d="M82.6353 11.2393C82.6353 13.1733 83.9377 13.864 85.6151 14.2784L87.3123 14.6928C88.3384 14.9494 88.9699 15.0678 88.9699 15.7979C88.9699 16.39 88.3187 16.8439 87.2925 16.8439C85.1612 16.8439 85.0428 15.0678 83.7996 15.0678C82.9905 15.0678 82.6353 15.6401 82.6353 16.2716C82.6353 17.6924 84.806 18.8568 87.4109 18.8568C89.5817 18.8568 91.8511 17.7714 91.8511 15.423C91.8511 13.4101 89.8975 12.7194 88.2595 12.3445L87.0557 12.0682C86.1677 11.8708 85.5164 11.713 85.5164 11.042C85.5164 10.4302 86.1677 10.154 87.1741 10.154C88.9897 10.154 89.0291 11.4761 90.154 11.4761C90.9039 11.4761 91.3578 10.8841 91.3578 10.2132C91.3578 8.89096 89.1475 8.02266 86.9571 8.02266C84.9639 8.02266 82.6353 8.89096 82.6353 11.2393Z" fill="#0E0F0F"/>
<path d="M94.0438 17.2385C94.0438 18.2055 94.6753 18.8568 95.662 18.8568C96.6487 18.8568 97.2802 18.2055 97.2802 17.2385V13.3904H100.872C104.01 13.3904 105.805 11.4761 105.805 8.89096C105.805 5.73348 103.615 4.39156 100.892 4.39156H95.9383C94.7937 4.39156 94.0438 4.84544 94.0438 6.28604V17.2385ZM97.2802 6.87807H99.9641C101.563 6.87807 102.569 7.4701 102.569 8.89096C102.569 10.1145 101.602 10.9039 100.3 10.9039H97.2802V6.87807Z" fill="#0E0F0F"/>
<path d="M116.422 10.9828C116.422 8.9107 114.508 8.02266 111.745 8.02266C108.785 8.02266 107.167 9.48299 107.167 10.6276C107.167 11.2196 107.66 11.7327 108.39 11.7327C109.535 11.7327 109.594 10.154 111.726 10.154C112.692 10.154 113.541 10.5092 113.541 11.338C113.541 12.1668 112.989 12.3247 112.298 12.4037L110.541 12.601C108.331 12.8575 106.516 13.5285 106.516 15.9163C106.516 17.7319 108.134 18.8568 109.772 18.8568C111.291 18.8568 112.594 18.4226 113.719 17.1793C113.758 18.0674 114.173 18.8568 115.416 18.8568C116.107 18.8568 116.718 18.4029 116.718 17.7516C116.718 17.2977 116.422 17.0215 116.422 15.8177V10.9828ZM113.541 14.8704C113.541 15.9361 112.574 16.9623 110.995 16.9623C110.009 16.9623 109.397 16.4294 109.397 15.7782C109.397 14.9099 110.048 14.535 111.252 14.3573L112.298 14.1995C112.633 14.1403 113.225 14.0416 113.541 13.7456V14.8704Z" fill="#0E0F0F"/>
<path d="M120.889 9.10804C120.711 8.45681 120.178 8.02266 119.409 8.02266C118.639 8.02266 118.007 8.61468 118.007 9.40405C118.007 9.73953 118.126 10.0553 118.363 10.746L121.362 19.2909C121.145 20.1789 120.731 20.1987 120.356 20.1987H120.06C119.29 20.1987 118.738 20.5934 118.738 21.363C118.738 22.0537 119.27 22.6852 120.553 22.6852C122.369 22.6852 123.158 21.659 123.849 19.6856L127.184 10.2329C127.322 9.85794 127.401 9.56192 127.401 9.32511C127.401 8.9699 127.066 8.02266 125.921 8.02266C125.132 8.02266 124.737 8.57521 124.54 9.30538L122.783 15.8374H122.744L120.889 9.10804Z" fill="#0E0F0F"/>
</g>
<defs>
<clipPath id="clip0_4476_192">
<rect width="127.401" height="24" fill="white"/>
</clipPath>
</defs>
</svg>
