<svg width="44" height="44" viewBox="0 0 44 44" fill="none" xmlns="http://www.w3.org/2000/svg">
<path d="M2.80366 0.777527H0.782715V2.79848H2.80366V0.777527Z" fill="#0E0F0F"/>
<path d="M4.82461 0.777527H2.80366V2.79848H4.82461V0.777527Z" fill="#0E0F0F"/>
<path d="M6.84556 0.777527H4.82461V2.79848H6.84556V0.777527Z" fill="#0E0F0F"/>
<path d="M8.86651 0.777527H6.84556V2.79848H8.86651V0.777527Z" fill="#0E0F0F"/>
<path d="M10.8875 0.777527H8.86651V2.79848H10.8875V0.777527Z" fill="#0E0F0F"/>
<path d="M12.9084 0.777527H10.8875V2.79848H12.9084V0.777527Z" fill="#0E0F0F"/>
<path d="M14.9294 0.777527H12.9084V2.79848H14.9294V0.777527Z" fill="#0E0F0F"/>
<path d="M18.9713 0.777527H16.9503V2.79848H18.9713V0.777527Z" fill="#0E0F0F"/>
<path d="M20.9922 0.777527H18.9713V2.79848H20.9922V0.777527Z" fill="#0E0F0F"/>
<path d="M23.0132 0.777527H20.9922V2.79848H23.0132V0.777527Z" fill="#0E0F0F"/>
<path d="M27.0551 0.777527H25.0341V2.79848H27.0551V0.777527Z" fill="#0E0F0F"/>
<path d="M31.097 0.777527H29.076V2.79848H31.097V0.777527Z" fill="#0E0F0F"/>
<path d="M33.1179 0.777527H31.097V2.79848H33.1179V0.777527Z" fill="#0E0F0F"/>
<path d="M35.1389 0.777527H33.1179V2.79848H35.1389V0.777527Z" fill="#0E0F0F"/>
<path d="M37.1598 0.777527H35.1389V2.79848H37.1598V0.777527Z" fill="#0E0F0F"/>
<path d="M39.1808 0.777527H37.1598V2.79848H39.1808V0.777527Z" fill="#0E0F0F"/>
<path d="M41.2017 0.777527H39.1808V2.79848H41.2017V0.777527Z" fill="#0E0F0F"/>
<path d="M43.2227 0.777527H41.2017V2.79848H43.2227V0.777527Z" fill="#0E0F0F"/>
<path d="M2.80366 2.79848H0.782715V4.81943H2.80366V2.79848Z" fill="#0E0F0F"/>
<path d="M14.9294 2.79848H12.9084V4.81943H14.9294V2.79848Z" fill="#0E0F0F"/>
<path d="M23.0132 2.79848H20.9922V4.81943H23.0132V2.79848Z" fill="#0E0F0F"/>
<path d="M25.0341 2.79848H23.0132V4.81943H25.0341V2.79848Z" fill="#0E0F0F"/>
<path d="M27.0551 2.79848H25.0341V4.81943H27.0551V2.79848Z" fill="#0E0F0F"/>
<path d="M31.097 2.79848H29.076V4.81943H31.097V2.79848Z" fill="#0E0F0F"/>
<path d="M43.2227 2.79848H41.2017V4.81943H43.2227V2.79848Z" fill="#0E0F0F"/>
<path d="M2.80366 4.81943H0.782715V6.84038H2.80366V4.81943Z" fill="#0E0F0F"/>
<path d="M6.84556 4.81943H4.82461V6.84038H6.84556V4.81943Z" fill="#0E0F0F"/>
<path d="M8.86651 4.81943H6.84556V6.84038H8.86651V4.81943Z" fill="#0E0F0F"/>
<path d="M10.8875 4.81943H8.86651V6.84038H10.8875V4.81943Z" fill="#0E0F0F"/>
<path d="M14.9294 4.81943H12.9084V6.84038H14.9294V4.81943Z" fill="#0E0F0F"/>
<path d="M20.9922 4.81943H18.9713V6.84038H20.9922V4.81943Z" fill="#0E0F0F"/>
<path d="M27.0551 4.81943H25.0341V6.84038H27.0551V4.81943Z" fill="#0E0F0F"/>
<path d="M31.097 4.81943H29.076V6.84038H31.097V4.81943Z" fill="#0E0F0F"/>
<path d="M35.1389 4.81943H33.1179V6.84038H35.1389V4.81943Z" fill="#0E0F0F"/>
<path d="M37.1598 4.81943H35.1389V6.84038H37.1598V4.81943Z" fill="#0E0F0F"/>
<path d="M39.1808 4.81943H37.1598V6.84038H39.1808V4.81943Z" fill="#0E0F0F"/>
<path d="M43.2227 4.81943H41.2017V6.84038H43.2227V4.81943Z" fill="#0E0F0F"/>
<path d="M2.80366 6.84038H0.782715V8.86133H2.80366V6.84038Z" fill="#0E0F0F"/>
<path d="M6.84556 6.84038H4.82461V8.86133H6.84556V6.84038Z" fill="#0E0F0F"/>
<path d="M8.86651 6.84038H6.84556V8.86133H8.86651V6.84038Z" fill="#0E0F0F"/>
<path d="M10.8875 6.84038H8.86651V8.86133H10.8875V6.84038Z" fill="#0E0F0F"/>
<path d="M14.9294 6.84038H12.9084V8.86133H14.9294V6.84038Z" fill="#0E0F0F"/>
<path d="M25.0341 6.84038H23.0132V8.86133H25.0341V6.84038Z" fill="#0E0F0F"/>
<path d="M31.097 6.84038H29.076V8.86133H31.097V6.84038Z" fill="#0E0F0F"/>
<path d="M35.1389 6.84038H33.1179V8.86133H35.1389V6.84038Z" fill="#0E0F0F"/>
<path d="M37.1598 6.84038H35.1389V8.86133H37.1598V6.84038Z" fill="#0E0F0F"/>
<path d="M39.1808 6.84038H37.1598V8.86133H39.1808V6.84038Z" fill="#0E0F0F"/>
<path d="M43.2227 6.84038H41.2017V8.86133H43.2227V6.84038Z" fill="#0E0F0F"/>
<path d="M2.80366 8.86133H0.782715V10.8823H2.80366V8.86133Z" fill="#0E0F0F"/>
<path d="M6.84556 8.86133H4.82461V10.8823H6.84556V8.86133Z" fill="#0E0F0F"/>
<path d="M8.86651 8.86133H6.84556V10.8823H8.86651V8.86133Z" fill="#0E0F0F"/>
<path d="M10.8875 8.86133H8.86651V10.8823H10.8875V8.86133Z" fill="#0E0F0F"/>
<path d="M14.9294 8.86133H12.9084V10.8823H14.9294V8.86133Z" fill="#0E0F0F"/>
<path d="M18.9713 8.86133H16.9503V10.8823H18.9713V8.86133Z" fill="#0E0F0F"/>
<path d="M20.9922 8.86133H18.9713V10.8823H20.9922V8.86133Z" fill="#0E0F0F"/>
<path d="M25.0341 8.86133H23.0132V10.8823H25.0341V8.86133Z" fill="#0E0F0F"/>
<path d="M27.0551 8.86133H25.0341V10.8823H27.0551V8.86133Z" fill="#0E0F0F"/>
<path d="M31.097 8.86133H29.076V10.8823H31.097V8.86133Z" fill="#0E0F0F"/>
<path d="M35.1389 8.86133H33.1179V10.8823H35.1389V8.86133Z" fill="#0E0F0F"/>
<path d="M37.1598 8.86133H35.1389V10.8823H37.1598V8.86133Z" fill="#0E0F0F"/>
<path d="M39.1808 8.86133H37.1598V10.8823H39.1808V8.86133Z" fill="#0E0F0F"/>
<path d="M43.2227 8.86133H41.2017V10.8823H43.2227V8.86133Z" fill="#0E0F0F"/>
<path d="M2.80366 10.8823H0.782715V12.9032H2.80366V10.8823Z" fill="#0E0F0F"/>
<path d="M14.9294 10.8823H12.9084V12.9032H14.9294V10.8823Z" fill="#0E0F0F"/>
<path d="M23.0132 10.8823H20.9922V12.9032H23.0132L23.0132 10.8823Z" fill="#0E0F0F"/>
<path d="M25.0341 10.8823H23.0132L23.0132 12.9032H25.0341V10.8823Z" fill="#0E0F0F"/>
<path d="M27.0551 10.8823H25.0341V12.9032H27.0551V10.8823Z" fill="#0E0F0F"/>
<path d="M31.097 10.8823H29.076V12.9032H31.097V10.8823Z" fill="#0E0F0F"/>
<path d="M43.2227 10.8823H41.2017V12.9032H43.2227V10.8823Z" fill="#0E0F0F"/>
<path d="M2.80366 12.9032H0.782715V14.9242H2.80366V12.9032Z" fill="#0E0F0F"/>
<path d="M4.82461 12.9032H2.80366V14.9242H4.82461V12.9032Z" fill="#0E0F0F"/>
<path d="M6.84556 12.9032H4.82461V14.9242H6.84556V12.9032Z" fill="#0E0F0F"/>
<path d="M8.86651 12.9032H6.84556V14.9242H8.86651V12.9032Z" fill="#0E0F0F"/>
<path d="M10.8875 12.9032H8.86651V14.9242H10.8875V12.9032Z" fill="#0E0F0F"/>
<path d="M12.9084 12.9032H10.8875V14.9242H12.9084V12.9032Z" fill="#0E0F0F"/>
<path d="M14.9294 12.9032H12.9084V14.9242H14.9294V12.9032Z" fill="#0E0F0F"/>
<path d="M18.9713 12.9032H16.9503V14.9242H18.9713V12.9032Z" fill="#0E0F0F"/>
<path d="M23.0132 12.9032H20.9922V14.9242H23.0132V12.9032Z" fill="#0E0F0F"/>
<path d="M27.0551 12.9032H25.0341V14.9242H27.0551V12.9032Z" fill="#0E0F0F"/>
<path d="M31.097 12.9032H29.076V14.9242H31.097V12.9032Z" fill="#0E0F0F"/>
<path d="M33.1179 12.9032H31.097V14.9242H33.1179V12.9032Z" fill="#0E0F0F"/>
<path d="M35.1389 12.9032H33.1179V14.9242H35.1389V12.9032Z" fill="#0E0F0F"/>
<path d="M37.1598 12.9032H35.1389V14.9242H37.1598V12.9032Z" fill="#0E0F0F"/>
<path d="M39.1808 12.9032H37.1598V14.9242H39.1808V12.9032Z" fill="#0E0F0F"/>
<path d="M41.2017 12.9032H39.1808V14.9242H41.2017V12.9032Z" fill="#0E0F0F"/>
<path d="M43.2227 12.9032H41.2017V14.9242H43.2227V12.9032Z" fill="#0E0F0F"/>
<path d="M18.9713 14.9242H16.9503V16.9451H18.9713V14.9242Z" fill="#0E0F0F"/>
<path d="M23.0132 14.9242H20.9922V16.9451H23.0132V14.9242Z" fill="#0E0F0F"/>
<path d="M2.80366 16.9451H0.782715V18.9661H2.80366V16.9451Z" fill="#0E0F0F"/>
<path d="M8.86651 16.9451H6.84556V18.9661H8.86651V16.9451Z" fill="#0E0F0F"/>
<path d="M10.8875 16.9451H8.86651V18.9661H10.8875V16.9451Z" fill="#0E0F0F"/>
<path d="M12.9084 16.9451H10.8875V18.9661H12.9084V16.9451Z" fill="#0E0F0F"/>
<path d="M14.9294 16.9451H12.9084V18.9661H14.9294V16.9451Z" fill="#0E0F0F"/>
<path d="M16.9503 16.9451L14.9294 16.9451V18.9661H16.9503L16.9503 16.9451Z" fill="#0E0F0F"/>
<path d="M18.9713 16.9451H16.9503L16.9503 18.9661H18.9713V16.9451Z" fill="#0E0F0F"/>
<path d="M23.0132 16.9451H20.9922V18.9661H23.0132V16.9451Z" fill="#0E0F0F"/>
<path d="M25.0341 16.9451L23.0132 16.9451V18.9661H25.0341V16.9451Z" fill="#0E0F0F"/>
<path d="M27.0551 16.9451H25.0341V18.9661H27.0551V16.9451Z" fill="#0E0F0F"/>
<path d="M29.076 16.9451H27.0551V18.9661H29.076V16.9451Z" fill="#0E0F0F"/>
<path d="M31.097 16.9451H29.076V18.9661H31.097V16.9451Z" fill="#0E0F0F"/>
<path d="M35.1389 16.9451H33.1179V18.9661H35.1389V16.9451Z" fill="#0E0F0F"/>
<path d="M43.2227 16.9451H41.2017V18.9661H43.2227V16.9451Z" fill="#0E0F0F"/>
<path d="M2.80366 18.9661H0.782715V20.987H2.80366V18.9661Z" fill="#0E0F0F"/>
<path d="M10.8875 18.9661H8.86651V20.987H10.8875V18.9661Z" fill="#0E0F0F"/>
<path d="M20.9922 18.9661H18.9713V20.987H20.9922V18.9661Z" fill="#0E0F0F"/>
<path d="M23.0132 18.9661H20.9922V20.987H23.0132V18.9661Z" fill="#0E0F0F"/>
<path d="M31.097 18.9661H29.076V20.987H31.097V18.9661Z" fill="#0E0F0F"/>
<path d="M33.1179 18.9661H31.097V20.987H33.1179V18.9661Z" fill="#0E0F0F"/>
<path d="M37.1598 18.9661H35.1389V20.987H37.1598V18.9661Z" fill="#0E0F0F"/>
<path d="M41.2017 18.9661H39.1808V20.987H41.2017V18.9661Z" fill="#0E0F0F"/>
<path d="M43.2227 18.9661H41.2017V20.987H43.2227V18.9661Z" fill="#0E0F0F"/>
<path d="M4.82461 20.987H2.80366V23.008H4.82461V20.987Z" fill="#0E0F0F"/>
<path d="M8.86651 20.987H6.84556V23.008H8.86651V20.987Z" fill="#0E0F0F"/>
<path d="M10.8875 20.987H8.86651V23.008H10.8875V20.987Z" fill="#0E0F0F"/>
<path d="M12.9084 20.987H10.8875V23.008H12.9084V20.987Z" fill="#0E0F0F"/>
<path d="M14.9294 20.987H12.9084V23.008H14.9294V20.987Z" fill="#0E0F0F"/>
<path d="M16.9503 20.987H14.9294V23.008H16.9503V20.987Z" fill="#0E0F0F"/>
<path d="M18.9713 20.987H16.9503V23.008H18.9713V20.987Z" fill="#0E0F0F"/>
<path d="M25.0341 20.987H23.0132L23.0132 23.008H25.0341V20.987Z" fill="#0E0F0F"/>
<path d="M27.0551 20.987H25.0341V23.008H27.0551V20.987Z" fill="#0E0F0F"/>
<path d="M29.076 20.987H27.0551V23.008H29.076V20.987Z" fill="#0E0F0F"/>
<path d="M31.097 20.987H29.076V23.008H31.097V20.987Z" fill="#0E0F0F"/>
<path d="M39.1808 20.987H37.1598V23.008H39.1808V20.987Z" fill="#0E0F0F"/>
<path d="M41.2017 20.987H39.1808V23.008H41.2017V20.987Z" fill="#0E0F0F"/>
<path d="M2.80366 23.008L0.782715 23.008V25.0289H2.80366V23.008Z" fill="#0E0F0F"/>
<path d="M6.84556 23.008H4.82461V25.0289H6.84556V23.008Z" fill="#0E0F0F"/>
<path d="M12.9084 23.008H10.8875V25.0289H12.9084V23.008Z" fill="#0E0F0F"/>
<path d="M16.9503 23.008H14.9294V25.0289H16.9503V23.008Z" fill="#0E0F0F"/>
<path d="M18.9713 23.008H16.9503V25.0289H18.9713V23.008Z" fill="#0E0F0F"/>
<path d="M20.9922 23.008L18.9713 23.008V25.0289H20.9922V23.008Z" fill="#0E0F0F"/>
<path d="M23.0132 23.008L20.9922 23.008V25.0289H23.0132L23.0132 23.008Z" fill="#0E0F0F"/>
<path d="M33.1179 23.008L31.097 23.008V25.0289H33.1179V23.008Z" fill="#0E0F0F"/>
<path d="M35.1389 23.008H33.1179V25.0289H35.1389V23.008Z" fill="#0E0F0F"/>
<path d="M37.1598 23.008L35.1389 23.008V25.0289H37.1598V23.008Z" fill="#0E0F0F"/>
<path d="M39.1808 23.008H37.1598V25.0289H39.1808V23.008Z" fill="#0E0F0F"/>
<path d="M4.82461 25.0289H2.80366V27.0499H4.82461V25.0289Z" fill="#0E0F0F"/>
<path d="M10.8875 25.0289H8.86651V27.0499H10.8875V25.0289Z" fill="#0E0F0F"/>
<path d="M14.9294 25.0289H12.9084V27.0499H14.9294V25.0289Z" fill="#0E0F0F"/>
<path d="M16.9503 25.0289H14.9294V27.0499H16.9503V25.0289Z" fill="#0E0F0F"/>
<path d="M20.9922 25.0289H18.9713V27.0499H20.9922V25.0289Z" fill="#0E0F0F"/>
<path d="M27.0551 25.0289H25.0341V27.0499H27.0551V25.0289Z" fill="#0E0F0F"/>
<path d="M29.076 25.0289H27.0551V27.0499H29.076V25.0289Z" fill="#0E0F0F"/>
<path d="M31.097 25.0289H29.076V27.0499H31.097V25.0289Z" fill="#0E0F0F"/>
<path d="M33.1179 25.0289H31.097V27.0499H33.1179V25.0289Z" fill="#0E0F0F"/>
<path d="M37.1598 25.0289H35.1389V27.0499H37.1598V25.0289Z" fill="#0E0F0F"/>
<path d="M43.2227 25.0289H41.2017V27.0499H43.2227V25.0289Z" fill="#0E0F0F"/>
<path d="M18.9713 27.0499H16.9503L16.9503 29.0708H18.9713V27.0499Z" fill="#0E0F0F"/>
<path d="M20.9922 27.0499H18.9713V29.0708H20.9922V27.0499Z" fill="#0E0F0F"/>
<path d="M23.0132 27.0499H20.9922V29.0708H23.0132V27.0499Z" fill="#0E0F0F"/>
<path d="M25.0341 27.0499H23.0132V29.0708H25.0341V27.0499Z" fill="#0E0F0F"/>
<path d="M29.076 27.0499H27.0551V29.0708H29.076V27.0499Z" fill="#0E0F0F"/>
<path d="M31.097 27.0499H29.076V29.0708H31.097V27.0499Z" fill="#0E0F0F"/>
<path d="M35.1389 27.0499H33.1179V29.0708H35.1389V27.0499Z" fill="#0E0F0F"/>
<path d="M41.2017 27.0499H39.1808V29.0708H41.2017V27.0499Z" fill="#0E0F0F"/>
<path d="M43.2227 27.0499H41.2017V29.0708H43.2227V27.0499Z" fill="#0E0F0F"/>
<path d="M2.80366 29.0708H0.782715V31.0918H2.80366V29.0708Z" fill="#0E0F0F"/>
<path d="M4.82461 29.0708H2.80366V31.0918H4.82461V29.0708Z" fill="#0E0F0F"/>
<path d="M6.84556 29.0708H4.82461V31.0918H6.84556V29.0708Z" fill="#0E0F0F"/>
<path d="M8.86651 29.0708H6.84556V31.0918H8.86651V29.0708Z" fill="#0E0F0F"/>
<path d="M10.8875 29.0708H8.86651V31.0918H10.8875V29.0708Z" fill="#0E0F0F"/>
<path d="M12.9084 29.0708H10.8875V31.0918H12.9084V29.0708Z" fill="#0E0F0F"/>
<path d="M14.9294 29.0708H12.9084V31.0918H14.9294V29.0708Z" fill="#0E0F0F"/>
<path d="M18.9713 29.0708H16.9503V31.0918H18.9713V29.0708Z" fill="#0E0F0F"/>
<path d="M20.9922 29.0708H18.9713V31.0918H20.9922V29.0708Z" fill="#0E0F0F"/>
<path d="M35.1389 29.0708H33.1179V31.0918H35.1389V29.0708Z" fill="#0E0F0F"/>
<path d="M39.1808 29.0708H37.1598V31.0918H39.1808V29.0708Z" fill="#0E0F0F"/>
<path d="M41.2017 29.0708H39.1808V31.0918H41.2017V29.0708Z" fill="#0E0F0F"/>
<path d="M43.2227 29.0708H41.2017V31.0918H43.2227V29.0708Z" fill="#0E0F0F"/>
<path d="M2.80366 31.0918H0.782715V33.1127H2.80366V31.0918Z" fill="#0E0F0F"/>
<path d="M14.9294 31.0918H12.9084V33.1127H14.9294V31.0918Z" fill="#0E0F0F"/>
<path d="M18.9713 31.0918H16.9503V33.1127H18.9713V31.0918Z" fill="#0E0F0F"/>
<path d="M25.0341 31.0918H23.0132V33.1127H25.0341V31.0918Z" fill="#0E0F0F"/>
<path d="M29.076 31.0918H27.0551V33.1127H29.076V31.0918Z" fill="#0E0F0F"/>
<path d="M37.1598 31.0918H35.1389V33.1127H37.1598V31.0918Z" fill="#0E0F0F"/>
<path d="M43.2227 31.0918H41.2017V33.1127H43.2227V31.0918Z" fill="#0E0F0F"/>
<path d="M2.80366 33.1127H0.782715V35.1337H2.80366V33.1127Z" fill="#0E0F0F"/>
<path d="M6.84556 33.1127H4.82461V35.1337H6.84556V33.1127Z" fill="#0E0F0F"/>
<path d="M8.86651 33.1127H6.84556V35.1337H8.86651V33.1127Z" fill="#0E0F0F"/>
<path d="M10.8875 33.1127H8.86651V35.1337H10.8875V33.1127Z" fill="#0E0F0F"/>
<path d="M14.9294 33.1127H12.9084V35.1337H14.9294V33.1127Z" fill="#0E0F0F"/>
<path d="M18.9713 33.1127H16.9503V35.1337H18.9713V33.1127Z" fill="#0E0F0F"/>
<path d="M20.9922 33.1127H18.9713V35.1337H20.9922V33.1127Z" fill="#0E0F0F"/>
<path d="M23.0132 33.1127H20.9922V35.1337H23.0132L23.0132 33.1127Z" fill="#0E0F0F"/>
<path d="M25.0341 33.1127H23.0132L23.0132 35.1337H25.0341V33.1127Z" fill="#0E0F0F"/>
<path d="M29.076 33.1127H27.0551V35.1337H29.076V33.1127Z" fill="#0E0F0F"/>
<path d="M31.097 33.1127H29.076V35.1337H31.097V33.1127Z" fill="#0E0F0F"/>
<path d="M37.1598 33.1127H35.1389V35.1337H37.1598V33.1127Z" fill="#0E0F0F"/>
<path d="M39.1808 33.1127H37.1598V35.1337H39.1808V33.1127Z" fill="#0E0F0F"/>
<path d="M41.2017 33.1127H39.1808V35.1337H41.2017V33.1127Z" fill="#0E0F0F"/>
<path d="M2.80366 35.1337H0.782715V37.1546H2.80366V35.1337Z" fill="#0E0F0F"/>
<path d="M6.84556 35.1337H4.82461V37.1546H6.84556V35.1337Z" fill="#0E0F0F"/>
<path d="M8.86651 35.1337H6.84556V37.1546H8.86651V35.1337Z" fill="#0E0F0F"/>
<path d="M10.8875 35.1337H8.86651V37.1546H10.8875V35.1337Z" fill="#0E0F0F"/>
<path d="M14.9294 35.1337H12.9084V37.1546H14.9294V35.1337Z" fill="#0E0F0F"/>
<path d="M18.9713 35.1337H16.9503V37.1546H18.9713V35.1337Z" fill="#0E0F0F"/>
<path d="M20.9922 35.1337H18.9713V37.1546H20.9922V35.1337Z" fill="#0E0F0F"/>
<path d="M27.0551 35.1337H25.0341V37.1546H27.0551V35.1337Z" fill="#0E0F0F"/>
<path d="M31.097 35.1337H29.076V37.1546H31.097V35.1337Z" fill="#0E0F0F"/>
<path d="M35.1389 35.1337H33.1179V37.1546H35.1389V35.1337Z" fill="#0E0F0F"/>
<path d="M43.2227 35.1337H41.2017V37.1546H43.2227V35.1337Z" fill="#0E0F0F"/>
<path d="M2.80366 37.1546H0.782715V39.1756H2.80366V37.1546Z" fill="#0E0F0F"/>
<path d="M6.84556 37.1546H4.82461V39.1756H6.84556V37.1546Z" fill="#0E0F0F"/>
<path d="M8.86651 37.1546H6.84556V39.1756H8.86651V37.1546Z" fill="#0E0F0F"/>
<path d="M10.8875 37.1546H8.86651V39.1756H10.8875V37.1546Z" fill="#0E0F0F"/>
<path d="M14.9294 37.1546H12.9084V39.1756H14.9294V37.1546Z" fill="#0E0F0F"/>
<path d="M20.9922 37.1546H18.9713V39.1756H20.9922V37.1546Z" fill="#0E0F0F"/>
<path d="M29.076 37.1546H27.0551V39.1756H29.076V37.1546Z" fill="#0E0F0F"/>
<path d="M31.097 37.1546H29.076V39.1756H31.097V37.1546Z" fill="#0E0F0F"/>
<path d="M37.1598 37.1546H35.1389V39.1756H37.1598V37.1546Z" fill="#0E0F0F"/>
<path d="M39.1808 37.1546H37.1598V39.1756H39.1808V37.1546Z" fill="#0E0F0F"/>
<path d="M2.80366 39.1756H0.782715V41.1965H2.80366V39.1756Z" fill="#0E0F0F"/>
<path d="M14.9294 39.1756H12.9084V41.1965H14.9294V39.1756Z" fill="#0E0F0F"/>
<path d="M20.9922 39.1756H18.9713V41.1965H20.9922V39.1756Z" fill="#0E0F0F"/>
<path d="M23.0132 39.1756H20.9922V41.1965H23.0132V39.1756Z" fill="#0E0F0F"/>
<path d="M31.097 39.1756H29.076V41.1965H31.097V39.1756Z" fill="#0E0F0F"/>
<path d="M33.1179 39.1756H31.097V41.1965H33.1179V39.1756Z" fill="#0E0F0F"/>
<path d="M35.1389 39.1756H33.1179V41.1965H35.1389V39.1756Z" fill="#0E0F0F"/>
<path d="M37.1598 39.1756H35.1389V41.1965H37.1598V39.1756Z" fill="#0E0F0F"/>
<path d="M2.80366 41.1965H0.782715V43.2175H2.80366V41.1965Z" fill="#0E0F0F"/>
<path d="M4.82461 41.1965H2.80366V43.2175H4.82461V41.1965Z" fill="#0E0F0F"/>
<path d="M6.84556 41.1965H4.82461V43.2175H6.84556V41.1965Z" fill="#0E0F0F"/>
<path d="M8.86651 41.1965H6.84556V43.2175H8.86651V41.1965Z" fill="#0E0F0F"/>
<path d="M10.8875 41.1965H8.86651V43.2175H10.8875V41.1965Z" fill="#0E0F0F"/>
<path d="M12.9084 41.1965H10.8875V43.2175H12.9084V41.1965Z" fill="#0E0F0F"/>
<path d="M14.9294 41.1965H12.9084V43.2175H14.9294V41.1965Z" fill="#0E0F0F"/>
<path d="M18.9713 41.1965H16.9503V43.2175H18.9713V41.1965Z" fill="#0E0F0F"/>
<path d="M25.0341 41.1965H23.0132L23.0132 43.2175H25.0341V41.1965Z" fill="#0E0F0F"/>
<path d="M27.0551 41.1965H25.0341V43.2175H27.0551V41.1965Z" fill="#0E0F0F"/>
<path d="M37.1598 41.1965H35.1389V43.2175H37.1598V41.1965Z" fill="#0E0F0F"/>
<path d="M43.2227 41.1965H41.2017V43.2175H43.2227V41.1965Z" fill="#0E0F0F"/>
</svg>
