<svg width="96" height="96" viewBox="0 0 96 96" fill="none" xmlns="http://www.w3.org/2000/svg">
<circle cx="48" cy="48" r="48" fill="url(#paint0_linear_4802_13159)"/>
<path opacity="0.4" d="M55.9019 42.8417L49.5037 47.9931C48.2929 48.9424 46.5956 48.9424 45.3847 47.9931L38.9316 42.8417" stroke="white" stroke-width="1.5" stroke-linecap="round" stroke-linejoin="round"/>
<path fill-rule="evenodd" clip-rule="evenodd" d="M40.3318 34.5H54.4737C56.5128 34.5229 58.4535 35.3849 59.844 36.8853C61.2345 38.3857 61.9533 40.3935 61.833 42.4412V52.233C61.9533 54.2806 61.2345 56.2885 59.844 57.7889C58.4535 59.2893 56.5128 60.1513 54.4737 60.1742H40.3318C35.9519 60.1742 33 56.611 33 52.233V42.4412C33 38.0632 35.9519 34.5 40.3318 34.5Z" stroke="white" stroke-width="1.5" stroke-linecap="round" stroke-linejoin="round"/>
<defs>
<linearGradient id="paint0_linear_4802_13159" x1="-18.1662" y1="116.471" x2="104.807" y2="57.7953" gradientUnits="userSpaceOnUse">
<stop stop-color="#2F80EC"/>
<stop offset="1" stop-color="#8364F6"/>
</linearGradient>
</defs>
</svg>
