<svg width="96" height="96" viewBox="0 0 96 96" fill="none" xmlns="http://www.w3.org/2000/svg">
<circle cx="48" cy="48" r="48" fill="#E3DBFF"/>
<path opacity="0.4" d="M52.7061 29C60.1081 29.822 65.9561 35.662 66.7861 43.064" stroke="url(#paint0_linear_4726_13182)" stroke-width="1.5" stroke-linecap="round" stroke-linejoin="round"/>
<path opacity="0.4" d="M52.7061 36.0859C56.2481 36.7739 59.0161 39.5439 59.7061 43.0859" stroke="url(#paint1_linear_4726_13182)" stroke-width="1.5" stroke-linecap="round" stroke-linejoin="round"/>
<path fill-rule="evenodd" clip-rule="evenodd" d="M46.063 48.9448C54.041 56.9207 55.8509 47.6934 60.9305 52.7696C65.8276 57.6655 68.6444 58.6464 62.4376 64.8494C61.6605 65.474 56.7225 72.9885 39.3689 55.6393C22.0132 38.288 29.5231 33.3449 30.1479 32.5679C36.3675 26.3477 37.3336 29.1788 42.2308 34.0747C47.3083 39.153 38.0851 40.9688 46.063 48.9448Z" stroke="url(#paint2_linear_4726_13182)" stroke-width="1.5" stroke-linecap="round" stroke-linejoin="round"/>
<defs>
<linearGradient id="paint0_linear_4726_13182" x1="50.0417" y1="46.0629" x2="68.0702" y2="37.4511" gradientUnits="userSpaceOnUse">
<stop stop-color="#2F80EC"/>
<stop offset="1" stop-color="#8364F6"/>
</linearGradient>
<linearGradient id="paint1_linear_4726_13182" x1="51.3814" y1="44.5786" x2="60.3483" y2="40.3002" gradientUnits="userSpaceOnUse">
<stop stop-color="#2F80EC"/>
<stop offset="1" stop-color="#8364F6"/>
</linearGradient>
<linearGradient id="paint2_linear_4726_13182" x1="20.8092" y1="75.1029" x2="69.4863" y2="51.8773" gradientUnits="userSpaceOnUse">
<stop stop-color="#2F80EC"/>
<stop offset="1" stop-color="#8364F6"/>
</linearGradient>
</defs>
</svg>
